<?xml version="1.0" standalone="no"?>
<!DOCTYPE svg PUBLIC "-//W3C//DTD SVG 20010904//EN"
 "http://www.w3.org/TR/2001/REC-SVG-20010904/DTD/svg10.dtd">
<svg version="1.0" xmlns="http://www.w3.org/2000/svg"
 width="1421.000000pt" height="1421.000000pt" viewBox="0 0 1421.000000 1421.000000"
 preserveAspectRatio="xMidYMid meet">
<metadata>
Created by potrace 1.11, written by Peter Selinger 2001-2013
</metadata>
<g transform="translate(0.000000,1421.000000) scale(0.100000,-0.100000)"
fill="#000000" stroke="none">
<path d="M3705 13260 c-11 -5 -74 -26 -140 -46 -66 -21 -145 -50 -175 -65 -30
-15 -128 -64 -217 -108 -131 -65 -184 -97 -281 -175 -104 -83 -138 -103 -257
-155 -75 -33 -153 -70 -173 -84 -80 -53 -267 -163 -442 -260 -37 -21 -59 -46
-125 -150 -75 -118 -86 -130 -180 -202 -55 -42 -109 -84 -120 -93 -20 -17
-245 -185 -418 -312 l-87 -64 -104 -186 -104 -185 -7 -88 -6 -88 -87 -121 -87
-121 -140 -55 c-77 -30 -192 -69 -255 -87 l-114 -31 -12 -65 c-6 -35 -11 -93
-10 -127 1 -47 -3 -67 -14 -75 -8 -7 -16 -19 -17 -27 -1 -8 -11 -62 -22 -120
-23 -121 -32 -180 -28 -180 2 0 27 29 56 65 85 104 108 127 246 235 133 105
149 120 327 320 91 102 110 119 175 149 l73 34 87 154 c83 147 93 159 192 251
58 53 125 116 150 140 25 24 145 120 266 215 190 148 317 249 335 267 3 3 34
30 70 60 36 30 67 57 70 60 3 3 46 39 95 80 50 41 92 78 95 82 3 3 91 57 195
118 170 101 201 123 295 215 l105 103 110 37 c102 34 167 65 430 206 129 69
473 218 640 276 269 94 355 123 366 123 7 0 32 -12 56 -27 l44 -28 -6 -80 c-3
-44 -11 -85 -18 -91 -7 -7 -37 -25 -67 -42 -30 -16 -83 -46 -117 -65 -45 -26
-104 -45 -220 -72 -87 -21 -167 -43 -178 -51 -11 -7 -54 -45 -95 -84 -49 -45
-93 -77 -125 -89 -205 -78 -270 -113 -413 -217 l-145 -106 -131 -24 c-72 -12
-146 -26 -163 -30 -25 -5 -58 -35 -145 -133 -171 -192 -167 -188 -418 -356
-236 -158 -265 -182 -354 -287 -44 -53 -54 -59 -133 -85 -94 -30 -96 -31 -206
-169 -45 -57 -97 -109 -140 -140 -38 -27 -79 -57 -92 -67 -33 -24 -215 -266
-216 -286 -1 -21 -4 -46 -13 -102 l-7 -45 -135 -55 -136 -54 -121 -128 c-85
-90 -147 -145 -204 -183 -46 -29 -83 -59 -84 -66 -4 -101 -12 -144 -26 -155
-9 -7 -100 -54 -204 -104 l-187 -92 1 -223 c0 -123 4 -228 7 -235 4 -6 54 55
120 146 62 86 123 160 134 165 12 4 44 10 71 14 28 3 59 8 70 10 11 3 29 5 41
5 12 1 33 18 51 44 17 23 72 89 123 147 51 58 145 173 210 255 70 89 151 180
201 224 80 71 299 287 440 436 37 39 97 99 135 134 38 36 129 121 202 190 104
97 174 152 315 246 159 105 558 394 859 622 82 61 176 113 565 308 258 129
558 284 668 344 110 61 225 119 255 130 190 66 276 103 524 226 152 75 276
140 276 143 0 7 -126 46 -297 92 l-102 27 -73 -25 -73 -24 -42 22 c-24 13 -43
26 -44 29 -3 26 -9 45 -16 51 -17 17 -333 63 -587 86 -109 10 -373 13 -391 4z"/>
<path d="M10077 13254 c-1 -1 -31 -5 -67 -9 -68 -7 -86 -9 -160 -19 -25 -4
-63 -9 -85 -12 -22 -3 -59 -10 -83 -15 -23 -5 -57 -12 -75 -15 -17 -2 -67 -13
-111 -22 l-78 -18 78 -36 c44 -20 160 -76 259 -123 99 -48 198 -95 220 -105
22 -10 65 -41 95 -68 191 -170 263 -230 306 -252 479 -250 538 -285 669 -391
11 -9 76 -62 145 -117 69 -55 134 -108 145 -118 11 -11 51 -46 90 -79 38 -33
82 -71 97 -84 16 -14 108 -78 206 -143 l177 -118 220 -71 220 -71 175 -110
c171 -108 218 -143 337 -245 32 -28 110 -95 173 -148 252 -212 449 -404 580
-565 25 -30 47 -57 50 -60 3 -3 82 -97 176 -210 95 -113 205 -258 247 -322 41
-65 76 -115 79 -113 2 2 3 28 2 57 -7 154 -15 283 -19 316 -17 121 -28 173
-38 180 -44 27 -166 186 -224 289 -36 65 -71 122 -78 128 -8 5 -85 65 -172
131 -87 67 -167 131 -178 141 -11 11 -144 122 -295 247 -151 126 -336 288
-410 360 -74 73 -144 137 -155 143 -11 6 -67 27 -125 48 -58 20 -172 72 -255
115 -286 148 -415 211 -437 215 -13 2 -52 6 -88 10 -35 3 -65 7 -65 8 -1 1
-48 57 -105 125 -87 104 -114 130 -179 168 -42 25 -105 63 -140 85 -34 21 -65
39 -68 39 -3 0 -17 8 -31 19 -15 10 -88 53 -162 96 -74 43 -233 138 -353 211
-121 74 -223 134 -227 134 -6 0 -60 130 -60 144 0 2 18 8 41 15 39 12 46 10
157 -38 118 -50 139 -55 267 -66 126 -11 124 -10 220 -104 228 -224 214 -214
334 -245 l107 -28 198 -144 c184 -136 202 -146 284 -170 90 -26 88 -25 357
-212 66 -46 217 -147 335 -225 215 -142 461 -333 850 -659 l195 -164 69 -124
69 -125 131 -101 c72 -56 132 -98 134 -94 5 12 -65 273 -115 433 -51 161 -36
138 -197 318 -23 25 -68 77 -101 114 -119 136 -150 162 -305 256 -131 79 -174
99 -285 134 l-130 42 -18 59 c-10 32 -22 68 -26 79 -9 21 -402 272 -651 416
-125 72 -270 163 -490 308 -30 20 -194 97 -365 170 -170 74 -380 168 -465 210
-85 41 -161 76 -169 78 -8 1 -60 5 -115 8 -84 6 -115 3 -185 -14 -46 -12 -88
-18 -95 -14 -6 3 -54 36 -106 72 -59 41 -105 66 -123 66 -15 1 -29 0 -30 -1z"/>
<path d="M11096 13209 c24 -24 57 -38 145 -64 80 -23 182 -66 339 -143 132
-65 264 -121 320 -138 80 -24 112 -40 205 -106 61 -42 115 -80 120 -85 59 -48
195 -129 360 -213 110 -57 202 -106 205 -109 3 -3 45 -42 94 -86 49 -44 103
-93 120 -108 17 -16 135 -102 261 -193 127 -90 250 -181 274 -202 l44 -37 -49
75 c-27 41 -54 81 -61 90 -7 8 -34 45 -61 81 -139 191 -363 416 -582 586 -77
59 -213 154 -240 166 -8 4 -33 18 -55 32 -316 196 -855 396 -1190 440 -27 4
-53 9 -56 11 -6 4 -42 10 -114 19 -27 4 -63 8 -80 11 l-29 4 30 -31z"/>
<path d="M2809 13186 c-2 -2 -17 -6 -34 -9 -39 -6 -131 -30 -285 -74 -277 -79
-591 -217 -833 -367 l-102 -62 -32 -82 c-27 -70 -60 -124 -108 -178 -5 -7 -32
-41 -60 -77 -55 -72 -60 -75 -280 -162 -129 -51 -152 -70 -195 -152 -51 -101
-90 -152 -143 -190 -30 -21 -67 -58 -82 -83 -41 -66 -168 -311 -164 -314 14
-12 91 -46 106 -46 9 0 69 53 133 118 104 105 191 183 375 337 33 28 71 60 85
72 14 11 113 94 220 183 107 89 242 206 300 260 58 53 119 109 135 124 17 15
96 90 176 166 144 137 146 140 170 212 20 60 27 73 44 71 11 -1 38 -4 60 -7
32 -4 51 1 85 21 147 85 405 223 417 223 6 0 15 5 18 10 6 10 2 14 -6 6z"/>
<path d="M8760 12956 c-80 -29 -207 -80 -283 -112 -164 -69 -163 -70 53 -89
36 -3 83 -7 105 -9 22 -3 78 -7 125 -11 105 -9 109 -10 184 -36 33 -12 140
-48 236 -81 152 -52 654 -274 904 -400 48 -24 197 -127 216 -149 3 -3 136
-104 295 -224 323 -243 414 -315 625 -490 80 -66 235 -191 345 -278 192 -151
204 -162 310 -298 61 -77 161 -202 224 -277 198 -237 350 -430 459 -581 58
-80 163 -217 234 -304 71 -87 186 -235 255 -330 69 -95 188 -254 265 -354 76
-100 138 -184 138 -186 0 -3 23 -52 50 -111 28 -58 73 -154 100 -212 28 -59
50 -108 50 -110 0 -2 28 -44 63 -92 98 -138 112 -161 158 -264 23 -54 44 -97
45 -95 4 5 77 265 81 292 3 17 9 38 14 48 5 9 7 17 5 17 -3 0 -1 11 4 26 6 14
12 39 15 57 3 18 8 44 11 59 4 22 -15 59 -105 200 -61 95 -138 202 -172 238
-33 36 -115 122 -180 191 -65 70 -135 151 -156 180 -218 319 -483 701 -510
734 -5 6 -45 62 -90 125 -176 247 -275 373 -325 418 -29 26 -55 50 -58 53 -3
3 -30 27 -60 54 -30 26 -86 76 -125 111 -38 34 -80 71 -92 81 -12 11 -57 80
-99 154 -43 74 -93 161 -112 194 -29 49 -62 82 -188 184 -186 152 -187 152
-304 260 -243 224 -288 262 -364 305 -45 25 -92 53 -106 61 -14 8 -101 59
-195 113 -106 61 -256 161 -400 267 -223 164 -643 428 -745 469 -67 27 -575
211 -649 235 -35 12 -74 21 -85 21 -12 -1 -86 -25 -166 -54z"/>
<path d="M5580 12902 c-8 -3 -94 -56 -192 -118 -98 -63 -211 -132 -251 -155
-39 -23 -115 -66 -167 -96 -52 -30 -117 -65 -145 -78 -27 -12 -165 -75 -305
-139 -140 -64 -262 -120 -270 -126 -253 -159 -400 -247 -555 -330 -272 -146
-266 -143 -409 -239 -72 -48 -156 -98 -186 -111 -30 -12 -77 -33 -105 -45 -27
-13 -79 -35 -115 -50 -75 -31 -79 -34 -300 -215 -144 -117 -184 -144 -305
-205 -139 -70 -140 -71 -290 -217 -138 -135 -159 -161 -249 -301 l-98 -154
-166 -126 c-92 -69 -194 -152 -227 -183 -33 -31 -82 -78 -110 -104 -129 -122
-300 -316 -411 -466 l-122 -166 -164 -94 c-133 -76 -180 -110 -256 -181 l-93
-88 16 -115 c17 -131 43 -281 48 -287 5 -4 -4 -12 526 506 346 339 434 427
506 506 35 39 198 215 244 264 166 178 254 272 287 309 21 24 108 101 194 170
85 70 241 211 345 314 165 162 215 204 383 323 l193 136 214 64 c191 57 225
70 324 129 86 50 404 283 431 315 3 3 28 24 55 46 28 21 52 42 55 45 29 32
233 189 260 199 19 8 49 20 65 27 17 7 117 47 223 89 168 66 220 92 400 202
114 69 342 201 508 293 299 167 301 168 465 214 90 26 167 51 172 55 4 4 -64
39 -150 79 -199 89 -254 111 -273 104z"/>
<path d="M7894 12556 c-115 -67 -294 -180 -294 -187 0 -3 30 -9 68 -13 37 -4
78 -8 92 -10 57 -8 123 -16 168 -22 81 -9 206 -25 227 -29 20 -3 134 -33 305
-80 52 -14 104 -28 115 -30 192 -42 660 -211 910 -330 66 -32 161 -77 210
-100 50 -24 144 -72 210 -107 66 -36 168 -90 227 -122 92 -48 203 -123 627
-423 120 -85 232 -171 297 -228 37 -33 111 -98 163 -144 53 -46 103 -91 112
-100 9 -9 62 -59 119 -111 162 -148 207 -195 337 -350 67 -80 141 -165 164
-190 115 -126 157 -183 283 -395 85 -142 196 -309 290 -435 105 -141 183 -260
250 -380 55 -99 138 -227 189 -295 50 -66 94 -122 97 -125 4 -3 41 -93 84
-200 43 -107 86 -213 96 -235 50 -110 194 -436 246 -555 l59 -135 5 -139 5
-139 22 44 c44 91 87 189 154 352 52 129 66 173 60 190 -5 12 -38 83 -73 157
-36 74 -72 151 -81 170 -90 198 -112 234 -247 415 -198 264 -350 498 -460 710
-60 116 -124 221 -179 295 -47 63 -88 117 -91 120 -3 3 -24 30 -47 61 -23 31
-48 62 -56 70 -8 8 -71 69 -140 137 l-124 123 -99 237 c-119 287 -54 211 -593
692 -58 51 -166 163 -240 249 -111 128 -152 167 -221 214 -201 135 -265 179
-431 299 -134 96 -221 150 -365 224 -104 53 -227 117 -273 141 -46 24 -169
105 -273 180 -169 121 -200 140 -306 180 -64 25 -130 51 -147 58 -91 39 -169
65 -245 79 -47 9 -94 18 -105 20 -11 2 -60 11 -110 21 -49 9 -166 41 -260 71
-328 107 -315 103 -440 118 -22 3 -71 8 -110 12 -38 3 -79 7 -90 8 -11 1 -52
-16 -91 -38z"/>
<path d="M6257 12444 c-122 -52 -160 -64 -220 -68 -40 -3 -90 -8 -112 -10 -22
-3 -64 -8 -94 -11 -64 -7 -52 1 -178 -102 -83 -68 -127 -95 -235 -144 -184
-84 -406 -194 -576 -284 -123 -65 -165 -82 -299 -117 l-156 -42 -76 -96 c-41
-52 -81 -101 -88 -108 -7 -7 -16 -19 -20 -25 -5 -7 -100 -50 -213 -96 -223
-89 -203 -76 -340 -231 -36 -40 -70 -78 -76 -84 -86 -89 -221 -257 -320 -401
l-124 -180 -127 -80 c-136 -86 -125 -73 -281 -305 -190 -281 -227 -328 -396
-495 -140 -139 -222 -209 -449 -383 l-278 -213 -62 -97 c-35 -53 -90 -139
-122 -190 -53 -82 -76 -107 -190 -202 -71 -59 -137 -116 -146 -126 -8 -11 -55
-104 -104 -209 -88 -187 -92 -192 -229 -360 -76 -93 -162 -197 -191 -230 -30
-33 -63 -72 -75 -88 l-22 -28 38 -97 c39 -101 83 -202 89 -202 1 0 27 33 57
73 61 80 101 142 282 440 169 277 281 426 379 499 41 32 93 75 114 96 64 64
463 485 500 529 10 11 54 60 98 108 177 195 185 204 514 540 75 77 177 185
226 239 118 130 137 151 325 351 41 45 129 139 195 210 66 71 135 145 153 164
19 20 79 99 134 175 55 77 109 152 121 168 12 16 71 56 132 90 68 37 166 106
255 177 149 121 327 237 744 489 133 80 290 176 349 214 78 49 147 83 245 119
480 177 478 177 850 370 61 32 115 58 120 58 9 -1 153 12 173 16 9 2 52 6 95
10 43 4 83 9 87 12 4 3 -3 13 -15 22 -25 20 -263 172 -294 188 -15 9 -49 -2
-167 -53z"/>
<path d="M7238 12098 c-57 -44 -109 -85 -116 -91 -9 -7 -20 -3 -40 15 -15 14
-55 46 -90 72 -62 47 -64 48 -120 42 -31 -3 -69 -8 -84 -11 -23 -4 -314 -114
-383 -144 -145 -64 -648 -220 -820 -255 -11 -2 -80 -18 -152 -36 l-133 -32
-84 -108 c-47 -59 -100 -120 -118 -135 -18 -15 -71 -62 -116 -104 -84 -75 -97
-85 -182 -133 -25 -14 -103 -59 -175 -99 -71 -41 -164 -89 -205 -108 -128 -57
-230 -105 -373 -177 l-138 -68 -68 -96 c-37 -52 -124 -197 -194 -322 -70 -125
-140 -240 -155 -255 -15 -16 -65 -69 -112 -119 -109 -113 -151 -165 -235 -289
-42 -62 -117 -150 -196 -230 -208 -211 -246 -254 -351 -387 -109 -140 -125
-154 -418 -349 -85 -57 -162 -108 -171 -114 -56 -35 -89 -63 -124 -107 -51
-64 -159 -173 -260 -265 -76 -68 -84 -79 -153 -218 -74 -149 -263 -439 -438
-675 -48 -63 -135 -197 -195 -298 l-109 -183 31 -62 c43 -85 129 -237 135
-237 2 0 38 66 79 148 41 81 86 167 101 192 14 25 52 90 84 145 32 55 88 163
125 240 87 183 145 296 159 315 7 8 57 85 112 170 54 85 166 241 249 345 82
105 190 244 239 310 72 97 104 131 168 178 l81 58 45 -18 c25 -10 46 -26 47
-34 16 -104 15 -129 -2 -146 -117 -119 -271 -325 -343 -458 -24 -44 -80 -145
-126 -225 -45 -80 -105 -192 -134 -250 -105 -211 -295 -558 -363 -665 -74
-115 -115 -167 -216 -275 -34 -36 -87 -109 -118 -163 l-56 -98 23 -42 c13 -23
49 -84 81 -134 l56 -93 25 48 c14 26 85 135 157 242 73 107 146 224 163 260
124 261 249 487 316 570 20 25 40 50 44 55 4 6 38 48 75 94 l68 85 86 21 85
21 55 -21 54 -21 -2 -48 c-2 -49 -18 -75 -106 -172 -39 -44 -169 -227 -192
-272 -11 -20 -35 -64 -53 -97 -19 -33 -50 -89 -70 -125 -32 -58 -64 -106 -114
-165 -89 -107 -98 -121 -99 -155 -2 -140 -8 -161 -58 -239 -27 -42 -56 -92
-64 -111 -39 -93 -130 -270 -138 -270 -20 0 -6 -33 43 -100 l51 -71 69 70 c38
39 73 71 78 71 5 0 30 14 55 31 31 21 52 45 66 77 12 26 35 76 51 112 55 120
125 304 168 440 43 140 82 252 121 355 31 81 244 400 337 505 42 47 141 151
222 232 l145 148 41 112 c34 93 42 127 43 193 1 44 3 94 5 110 2 32 303 504
471 740 50 72 127 193 169 270 44 81 96 161 124 190 26 28 67 73 91 100 24 28
105 115 180 193 75 79 156 165 181 191 25 26 104 92 175 146 155 117 192 146
310 247 50 42 135 104 190 138 63 39 128 90 175 138 167 170 686 563 875 662
44 23 103 55 130 71 88 49 348 150 425 165 41 8 84 16 95 18 11 2 67 14 125
26 102 21 174 52 365 155 29 16 131 47 245 75 183 46 205 49 366 54 162 6 244
11 344 21 184 19 364 24 420 13 19 -4 58 -12 85 -17 28 -6 61 -13 75 -16 14
-3 77 -10 140 -15 89 -7 140 -17 225 -45 61 -20 182 -53 270 -74 198 -47 401
-117 520 -179 50 -25 130 -67 178 -92 60 -31 134 -83 230 -163 78 -65 212
-165 297 -222 131 -86 174 -122 275 -226 128 -132 304 -278 478 -396 105 -72
108 -75 255 -270 83 -109 160 -209 172 -223 11 -14 29 -34 38 -45 123 -147
158 -195 211 -298 33 -64 99 -169 147 -233 56 -77 112 -170 164 -273 94 -186
156 -278 355 -520 l150 -182 26 -127 c14 -70 29 -134 35 -142 43 -70 93 -124
149 -160 36 -23 65 -50 66 -59 0 -9 2 -24 4 -34 2 -10 6 -48 10 -85 3 -37 13
-114 21 -172 8 -58 17 -122 19 -143 5 -36 16 -62 126 -295 l48 -103 2 -182 c1
-112 8 -220 18 -282 l17 -100 25 40 c14 22 54 90 88 152 l62 112 -11 83 c-11
84 -18 133 -25 178 -4 29 -25 181 -31 225 -11 87 -20 123 -69 270 -106 317
-126 367 -200 515 -65 129 -128 284 -195 476 -16 45 -82 148 -278 434 -46 67
-59 81 -200 210 l-82 74 -66 166 c-64 162 -66 166 -125 215 -32 28 -74 64 -92
80 -18 17 -50 44 -71 62 -23 19 -74 90 -125 175 -127 209 -277 395 -413 514
-62 55 -131 115 -153 136 -22 20 -83 71 -135 113 -183 148 -243 199 -285 240
-12 11 -59 54 -105 95 -47 41 -94 83 -105 93 -11 11 -78 59 -150 108 -314 214
-396 280 -450 357 l-50 72 -130 50 c-71 28 -139 55 -150 60 -50 23 -327 115
-375 124 -167 32 -249 57 -425 126 -123 49 -223 83 -260 87 -55 7 -308 9 -480
3 -38 -1 -106 -10 -150 -20 -44 -10 -114 -26 -155 -34 -41 -9 -114 -25 -162
-35 -48 -11 -118 -23 -155 -26 -37 -3 -84 -7 -103 -10 -19 -2 -66 -6 -105 -10
-38 -3 -92 -8 -120 -10 -27 -3 -72 -7 -98 -10 -46 -4 -571 -172 -802 -256 -60
-22 -139 -51 -175 -63 -36 -13 -213 -97 -393 -187 -307 -153 -337 -170 -445
-258 -65 -51 -165 -127 -224 -167 -83 -58 -126 -98 -200 -183 -87 -101 -106
-116 -283 -235 -168 -114 -208 -146 -350 -285 -88 -87 -205 -207 -260 -266
-55 -60 -105 -113 -110 -119 -6 -6 -66 -83 -134 -171 -132 -170 -143 -182
-290 -315 -51 -47 -108 -99 -126 -116 -19 -17 -57 -75 -86 -129 -29 -55 -103
-177 -166 -272 -121 -184 -117 -175 -243 -538 -23 -66 -87 -224 -142 -352
l-100 -231 -51 -22 c-29 -13 -79 -35 -112 -50 l-61 -28 -78 21 c-61 16 -76 24
-72 36 2 9 43 113 91 231 92 230 116 283 250 540 50 95 103 214 125 280 80
240 88 253 230 399 94 97 133 145 150 184 46 105 73 162 81 167 38 25 305 301
426 441 84 96 180 197 215 224 71 56 353 291 411 342 20 18 80 80 133 138 53
58 99 105 103 105 4 0 74 37 156 81 139 77 164 95 419 313 163 140 307 254
361 287 50 31 142 88 206 127 89 55 142 80 230 108 63 19 231 73 374 119 465
150 745 232 817 240 38 4 95 13 208 30 41 6 151 13 310 19 63 3 126 7 139 10
13 3 48 8 78 12 49 5 58 11 106 61 29 30 53 58 55 63 2 4 -14 18 -35 31 -21
12 -54 35 -73 49 -35 27 -36 27 -212 27 l-177 0 -103 -79z"/>
<path d="M8076 11413 c-1 -1 -58 -3 -128 -4 -83 -1 -152 -8 -204 -20 -42 -10
-91 -21 -108 -23 -17 -3 -40 -8 -51 -10 -11 -3 -65 -14 -120 -26 -54 -11 -160
-37 -235 -56 -74 -20 -151 -40 -171 -45 -34 -8 -422 -149 -464 -169 -11 -5
-83 -32 -160 -59 -372 -130 -336 -113 -509 -239 -87 -65 -200 -153 -251 -197
-50 -44 -171 -148 -267 -231 -148 -129 -181 -163 -219 -225 -24 -41 -93 -141
-153 -224 -60 -82 -119 -172 -132 -200 -12 -27 -45 -99 -74 -160 -29 -60 -83
-186 -122 -280 -38 -93 -73 -175 -76 -181 -6 -10 -166 -185 -232 -254 -8 -8
-53 -62 -100 -120 -47 -58 -91 -111 -98 -118 -39 -42 -63 -88 -96 -185 -29
-87 -53 -133 -117 -229 l-80 -119 -3 -87 c-2 -48 -11 -115 -20 -149 -10 -35
-19 -73 -21 -85 -6 -28 -119 -309 -183 -455 l-49 -111 4 -155 3 -156 -45 -103
c-31 -68 -47 -121 -50 -156 -2 -30 -6 -80 -10 -112 -5 -47 -1 -77 25 -166 32
-114 68 -222 80 -239 4 -5 16 -35 28 -65 19 -50 27 -81 38 -135 2 -11 10 -51
18 -89 8 -38 13 -73 11 -76 -6 -10 -7 -201 0 -235 13 -74 20 -123 40 -285 17
-135 20 -162 36 -260 9 -61 13 -83 25 -155 6 -38 75 -300 113 -430 16 -55 57
-170 91 -255 35 -85 93 -249 130 -365 l66 -210 141 -185 c115 -152 156 -216
228 -355 63 -121 106 -190 149 -240 34 -38 63 -72 66 -75 5 -5 144 -167 338
-395 43 -49 139 -160 215 -246 l137 -157 273 -180 c149 -98 321 -210 382 -247
l109 -67 24 27 23 28 77 -23 c80 -24 132 -57 348 -225 79 -61 118 -82 287
-154 l196 -83 127 73 c103 58 124 74 108 80 -10 4 -70 22 -132 40 -96 28 -133
45 -245 114 -73 45 -202 131 -288 191 -85 60 -159 110 -165 111 -5 0 -47 4
-94 8 -47 3 -101 8 -120 10 -19 2 -64 7 -100 10 -62 6 -93 21 -142 68 -7 7
-26 23 -43 36 -16 12 -73 64 -125 115 -52 51 -169 154 -260 230 -91 75 -194
170 -229 209 -35 40 -82 92 -105 117 -23 25 -84 97 -136 160 -52 63 -97 117
-100 120 -3 3 -35 41 -71 85 -104 126 -272 382 -328 499 -41 87 -76 138 -182
269 -109 136 -137 177 -168 252 -21 50 -50 117 -66 150 -15 33 -45 123 -66
200 -22 77 -61 208 -89 290 -27 83 -56 191 -65 240 -8 50 -17 100 -20 113 -2
13 -13 78 -25 145 -11 67 -22 133 -25 147 -7 43 -34 204 -39 235 -2 17 -9 59
-15 95 -6 36 -13 83 -17 105 -3 22 -26 130 -51 240 -25 110 -47 214 -49 230
-2 17 -6 53 -10 80 -11 87 -13 105 -18 143 -15 102 -19 161 -20 322 -1 96 1
188 5 203 5 16 24 108 45 205 42 203 43 208 49 242 3 14 7 34 9 45 37 175 50
239 71 359 14 77 28 155 30 171 17 98 34 149 116 339 128 296 153 346 191 386
93 97 229 264 276 340 29 47 74 119 100 160 42 65 79 129 160 270 11 19 36 64
57 100 21 36 46 79 56 97 10 17 95 129 190 249 94 119 223 288 286 375 l115
159 204 127 c217 134 204 122 365 318 63 75 61 74 272 150 282 101 537 180
627 195 41 7 84 14 95 16 11 2 49 9 85 14 65 10 135 23 220 41 54 11 50 10
218 49 157 36 171 38 282 44 300 17 316 17 390 3 41 -9 93 -19 115 -23 22 -4
45 -8 50 -10 6 -1 24 -5 41 -8 17 -3 75 -20 130 -37 54 -17 133 -41 174 -54
225 -68 332 -111 465 -185 77 -43 205 -110 283 -149 93 -46 195 -108 290 -175
128 -91 179 -137 385 -345 130 -132 237 -244 237 -249 0 -4 34 -71 75 -147 41
-76 75 -140 75 -141 0 -2 39 -94 86 -206 67 -157 108 -236 185 -359 87 -138
109 -181 180 -365 44 -115 107 -299 139 -410 50 -172 59 -218 65 -315 4 -63 8
-130 10 -149 2 -19 7 -82 10 -140 4 -58 8 -125 10 -150 8 -108 18 -307 17
-330 -1 -14 -4 -223 -6 -465 -2 -242 -9 -467 -15 -500 -87 -501 -96 -556 -107
-665 -3 -25 -6 -56 -9 -70 -2 -14 -7 -52 -11 -85 -8 -78 -4 -61 -69 -285 -99
-347 -105 -362 -139 -393 -150 -139 -214 -210 -278 -305 -39 -59 -136 -195
-216 -302 -129 -172 -158 -205 -251 -282 -105 -87 -394 -291 -435 -308 -11 -5
-84 -23 -161 -40 -101 -22 -157 -29 -200 -26 -33 3 -143 8 -245 11 -388 13
-378 12 -492 48 -100 32 -117 42 -285 162 -98 71 -214 153 -258 183 -252 173
-322 239 -516 496 -44 58 -109 128 -153 165 -62 52 -91 87 -151 184 -42 65
-106 155 -144 200 -37 45 -84 111 -103 147 -80 150 -147 263 -229 386 -225
340 -222 333 -289 506 -53 136 -75 181 -120 237 -29 39 -56 68 -59 66 -10 -10
-36 -224 -29 -241 4 -11 24 -73 44 -139 68 -221 164 -431 301 -659 70 -115
132 -217 139 -225 8 -9 53 -70 102 -136 49 -66 120 -163 159 -215 38 -52 106
-133 150 -180 115 -122 140 -152 218 -260 180 -250 271 -375 362 -499 l99
-135 134 -43 c223 -72 587 -192 718 -237 l124 -43 371 3 c205 2 392 5 417 7
65 6 288 145 406 254 100 91 124 113 236 205 42 34 119 115 171 178 73 89 362
389 405 419 4 4 32 68 62 144 30 79 90 201 138 285 66 115 97 184 144 317 33
94 61 179 64 190 2 11 11 54 18 96 8 42 31 150 50 240 19 90 37 175 40 189 3
14 12 57 20 95 26 120 80 536 80 620 1 71 -6 177 -20 315 -9 87 -6 105 20 170
31 72 55 147 51 152 -2 2 -8 39 -14 83 -11 80 -16 150 -26 365 -3 63 -7 151
-10 195 -2 56 -18 131 -50 245 -26 91 -62 223 -80 293 -27 105 -41 140 -76
190 -174 254 -145 189 -336 747 -14 42 -254 650 -273 695 -5 11 -21 49 -35 85
-15 36 -39 76 -53 90 -15 14 -93 85 -174 158 -81 74 -159 148 -174 165 -15 18
-70 78 -122 135 l-95 103 -171 86 c-94 47 -225 117 -291 156 -66 38 -136 79
-155 90 -19 11 -82 44 -140 72 -101 51 -144 71 -315 150 -44 20 -183 76 -310
123 l-230 87 -218 0 c-120 0 -220 -1 -221 -2z"/>
<path d="M423 11245 c-21 -9 -37 -26 -47 -49 -28 -66 -108 -316 -104 -325 3
-10 214 75 240 96 8 7 28 35 45 61 l30 49 -55 91 c-30 51 -60 92 -66 92 -6 -1
-25 -7 -43 -15z"/>
<path d="M12100 11194 c2 -56 51 -151 100 -194 3 -3 34 -41 69 -85 35 -44 139
-154 230 -245 91 -91 209 -211 261 -266 52 -55 140 -140 195 -190 55 -49 102
-92 105 -95 8 -10 150 -168 201 -224 25 -27 59 -65 75 -84 16 -19 34 -39 39
-45 6 -6 30 -36 55 -66 25 -30 49 -60 55 -67 99 -114 552 -692 591 -754 30
-47 46 -59 50 -37 7 51 19 183 28 314 l4 51 -139 188 c-76 104 -207 269 -291
368 -183 215 -171 200 -234 273 -28 32 -70 81 -93 108 -50 57 -37 45 -176 170
-112 100 -225 214 -318 319 -28 32 -67 68 -87 80 -169 103 -231 151 -342 269
l-117 123 -113 42 c-154 58 -148 56 -148 47z"/>
<path d="M3075 10987 c-190 -110 -190 -110 -289 -258 -92 -138 -92 -138 -262
-276 -230 -188 -238 -194 -329 -249 -44 -26 -83 -52 -87 -58 -4 -6 -26 -62
-49 -126 l-42 -115 -96 -59 c-53 -32 -166 -109 -253 -170 l-156 -111 -47 -127
c-26 -71 -50 -130 -53 -132 -4 -2 -36 -7 -72 -11 -35 -4 -73 -11 -85 -15 -26
-10 -218 -210 -249 -258 -12 -20 -48 -86 -80 -147 -62 -121 -71 -134 -102
-155 -11 -8 -41 -32 -65 -52 -24 -20 -72 -58 -105 -85 -36 -28 -134 -135 -239
-262 l-178 -213 17 -62 c34 -122 81 -266 87 -263 3 1 47 51 98 110 53 62 136
177 193 270 91 144 149 226 233 322 15 17 48 54 73 84 26 30 52 59 57 65 20
21 190 212 220 246 68 78 380 381 505 490 41 36 77 67 80 70 3 3 66 57 140
119 189 160 408 385 576 594 112 139 167 198 257 275 109 92 326 335 347 387
4 11 23 52 43 92 l35 72 -31 10 c-37 13 -66 13 -92 -2z"/>
<path d="M7790 10829 c-80 -4 -156 -9 -170 -13 -14 -3 -178 -36 -365 -73
l-340 -66 -177 -114 c-167 -107 -248 -153 -533 -303 -127 -67 -324 -197 -364
-239 -129 -141 -171 -195 -270 -354 -125 -199 -246 -364 -341 -468 -52 -57
-113 -142 -180 -250 -95 -154 -105 -167 -181 -225 -44 -34 -82 -63 -84 -66 -3
-2 -10 -39 -15 -82 -11 -77 -11 -77 -111 -206 -98 -126 -102 -134 -149 -268
-26 -75 -51 -157 -55 -182 -3 -25 -8 -56 -10 -70 -2 -14 -9 -54 -14 -90 -6
-36 -13 -83 -16 -105 -3 -22 -17 -91 -31 -154 -23 -104 -24 -128 -20 -308 2
-107 1 -207 -4 -221 -4 -15 -26 -85 -49 -156 -49 -151 -48 -144 -57 -367 -13
-300 -9 -490 11 -644 2 -16 7 -68 10 -115 16 -245 14 -237 76 -377 31 -72 83
-216 114 -320 31 -103 91 -291 134 -418 43 -126 81 -255 85 -285 4 -30 10 -68
12 -85 20 -152 26 -177 57 -236 19 -35 67 -127 107 -204 75 -143 226 -367 460
-680 75 -100 146 -209 174 -265 26 -52 60 -106 74 -119 67 -59 98 -85 262
-222 96 -80 189 -159 205 -175 32 -30 170 -155 265 -240 31 -27 134 -107 230
-179 96 -71 177 -133 180 -137 3 -4 17 -13 30 -20 14 -7 121 -71 237 -141 117
-71 221 -130 230 -132 147 -30 402 -101 453 -125 36 -17 82 -40 103 -50 l39
-18 120 76 c67 42 117 77 112 79 -5 1 -61 14 -124 28 -84 19 -137 38 -195 70
-135 73 -214 111 -359 171 -119 49 -169 77 -340 194 -111 75 -264 183 -341
240 -77 57 -228 170 -337 250 -111 83 -253 200 -328 271 -169 159 -258 282
-570 789 -38 63 -108 162 -154 220 -78 98 -90 119 -167 300 -45 107 -91 215
-102 240 -11 25 -50 135 -87 245 -37 110 -106 290 -153 400 -81 191 -86 207
-111 360 -29 175 -33 198 -41 235 -3 14 -10 52 -15 85 -12 73 -16 95 -37 205
-9 47 -16 90 -16 95 3 99 15 431 18 495 2 47 7 144 10 215 3 72 8 175 10 230
3 55 7 123 10 150 11 91 14 119 20 185 3 36 8 81 10 100 3 19 7 64 10 100 3
36 10 81 15 100 5 19 11 46 14 60 2 14 11 55 20 93 9 37 18 81 21 99 3 17 7
34 9 37 2 3 7 51 11 106 9 137 11 145 57 270 22 61 64 178 93 260 29 83 73
193 98 245 l45 95 102 44 c108 46 103 46 132 -4 8 -13 11 -64 10 -140 -3 -189
-25 -261 -149 -505 l-105 -205 6 -65 c3 -36 9 -96 13 -135 9 -94 9 -257 0
-325 -29 -211 -44 -339 -41 -361 1 -15 8 -82 14 -150 6 -68 13 -135 15 -149 3
-14 7 -54 10 -90 4 -54 31 -225 48 -305 3 -11 8 -40 12 -65 4 -25 9 -52 10
-61 4 -19 27 -95 90 -289 47 -147 114 -362 120 -390 16 -66 51 -172 75 -223
78 -173 200 -414 257 -506 34 -57 63 -105 63 -107 0 -8 176 -284 260 -409 15
-22 79 -128 143 -235 121 -201 363 -525 464 -620 27 -25 116 -108 198 -186 83
-77 179 -167 215 -200 36 -32 91 -81 121 -109 30 -27 82 -73 115 -102 32 -29
95 -95 139 -147 l80 -95 285 -96 c157 -54 377 -128 489 -166 144 -49 250 -92
361 -148 85 -44 174 -82 196 -85 22 -4 51 -8 64 -11 90 -18 73 -24 270 116
102 72 194 140 204 150 19 18 19 18 0 17 -19 -1 -213 9 -309 17 -27 2 -106 15
-175 29 -183 39 -188 39 -293 51 -32 4 -66 8 -76 10 -10 2 -42 6 -72 10 -97
11 -108 16 -312 134 -159 93 -241 133 -385 189 -153 61 -202 85 -305 154 -67
45 -142 100 -167 124 -25 23 -73 66 -107 95 -34 30 -83 79 -109 109 -25 30
-65 78 -89 105 -24 28 -60 70 -81 95 -22 25 -91 99 -155 165 -64 66 -179 197
-254 290 -76 94 -141 172 -144 175 -3 3 -12 16 -20 30 -8 14 -44 72 -79 130
-36 58 -113 202 -173 320 -60 118 -140 274 -178 345 -56 105 -90 189 -171 425
-55 162 -104 311 -109 330 -5 19 -28 103 -51 185 -51 185 -78 297 -85 354 -3
23 -7 55 -10 70 -4 26 -22 138 -30 196 -3 17 -9 58 -15 93 -10 60 -25 157 -35
217 -4 27 -8 63 -20 177 -2 21 -7 75 -10 120 -4 46 -9 94 -11 108 -10 55 -12
248 -4 300 5 30 12 74 15 97 2 23 9 71 14 105 6 35 13 86 16 113 3 28 7 61 10
75 13 90 21 145 30 225 4 33 9 76 11 95 3 19 7 51 9 70 2 19 6 55 10 80 18
139 26 220 41 403 7 95 7 96 78 275 56 143 89 213 193 412 97 183 114 212 195
337 l80 122 155 61 c144 56 233 103 652 342 18 10 124 44 235 74 110 31 257
71 326 91 152 42 115 34 408 89 221 42 248 45 290 34 26 -7 56 -14 67 -16 42
-8 67 -14 310 -69 303 -68 246 -55 458 -109 177 -45 191 -50 277 -98 25 -14
70 -39 100 -56 147 -81 191 -109 335 -213 l155 -112 140 -196 c76 -108 143
-200 147 -206 5 -5 25 -33 44 -61 19 -29 95 -115 169 -192 103 -107 144 -157
173 -214 21 -40 79 -150 128 -244 87 -167 91 -179 173 -465 55 -191 87 -320
91 -369 3 -41 8 -93 10 -115 2 -22 7 -78 10 -125 3 -47 8 -105 10 -130 11
-130 18 -216 18 -225 0 -5 -10 -64 -22 -130 -11 -66 -24 -133 -27 -150 -32
-180 -60 -274 -124 -410 -51 -110 -118 -298 -169 -475 -34 -118 -67 -228 -73
-245 -7 -16 -68 -113 -136 -214 l-125 -183 -49 -172 c-28 -94 -52 -181 -55
-194 -4 -15 -40 -46 -109 -92 -57 -39 -107 -70 -111 -70 -3 0 -14 -6 -22 -14
-9 -8 -43 -17 -76 -21 -33 -3 -100 -12 -148 -19 -115 -17 -126 -16 -254 32
-59 22 -149 55 -198 73 -54 20 -160 76 -264 138 -149 91 -182 115 -239 180
-37 41 -86 95 -109 120 -23 25 -77 106 -120 179 -43 74 -134 211 -202 305 -69
95 -165 242 -214 327 -50 85 -131 216 -182 290 -50 74 -131 201 -179 281 -79
133 -90 157 -121 275 -19 71 -58 242 -86 379 -28 138 -59 286 -69 330 -22 97
-64 358 -64 400 0 17 20 122 43 235 43 204 48 262 32 372 -1 6 -29 -23 -148
-151 -29 -31 -54 -76 -84 -150 -23 -58 -48 -120 -56 -138 -13 -28 -11 -46 16
-190 26 -138 31 -187 35 -388 3 -126 7 -239 10 -250 2 -11 9 -40 15 -65 5 -25
12 -57 15 -72 34 -189 67 -280 230 -623 106 -222 105 -220 246 -415 133 -184
158 -221 207 -310 57 -103 165 -285 179 -301 8 -8 14 -21 14 -27 0 -7 4 -12 8
-12 4 0 16 -15 27 -32 10 -18 23 -37 28 -43 8 -10 34 -47 247 -356 105 -152
145 -200 249 -301 68 -66 134 -123 147 -128 12 -5 96 -28 186 -51 90 -23 170
-47 178 -54 8 -6 46 -31 83 -55 l68 -43 171 1 172 1 140 94 c78 51 183 120
234 152 88 55 98 65 183 181 107 149 141 202 204 319 61 115 84 157 188 341
72 127 93 175 131 297 44 146 120 351 179 489 9 21 55 89 101 150 84 112 85
114 92 188 10 94 7 197 -11 380 -2 19 -6 82 -10 140 -3 58 -8 116 -10 130 -2
14 -6 57 -10 95 -3 39 -8 77 -10 85 -2 8 -6 49 -10 90 -18 236 -141 673 -251
894 -33 66 -65 127 -157 296 -105 194 -335 561 -395 630 -35 41 -74 86 -87
100 -12 15 -52 66 -90 115 -133 173 -178 230 -199 250 -19 18 -112 100 -203
180 -72 62 -347 215 -563 312 -124 56 -245 106 -270 113 -25 6 -58 16 -75 21
-16 5 -88 26 -160 46 l-130 37 -255 0 c-140 1 -320 -2 -400 -5z"/>
<path d="M8046 10253 c-1 -1 -73 -3 -161 -4 -150 -2 -203 -8 -450 -54 -16 -3
-45 -8 -63 -11 -31 -5 -807 -389 -837 -414 -7 -6 -36 -49 -65 -96 -45 -73 -63
-93 -128 -137 -179 -123 -186 -130 -278 -263 -49 -71 -96 -142 -105 -159 -8
-16 -38 -71 -67 -120 -42 -75 -57 -117 -87 -235 -43 -177 -42 -168 -52 -287
-11 -130 -10 -630 1 -768 5 -60 9 -126 9 -145 0 -38 -12 -253 -18 -310 -15
-151 -19 -228 -19 -315 1 -133 13 -442 19 -458 2 -6 6 -30 9 -52 2 -22 21
-141 41 -265 32 -192 48 -260 111 -462 77 -246 124 -357 400 -957 20 -41 104
-170 194 -295 168 -233 177 -244 298 -371 41 -44 101 -107 131 -140 101 -107
255 -297 376 -460 73 -98 152 -191 204 -241 47 -45 118 -111 156 -147 107
-101 309 -212 510 -280 88 -30 201 -69 250 -86 76 -27 131 -42 235 -66 8 -2
56 -13 105 -24 50 -12 106 -25 125 -29 36 -8 57 -8 390 1 195 6 246 13 538 77
45 10 75 30 215 143 202 162 261 210 267 218 3 3 34 29 70 58 254 209 719 632
990 901 153 152 253 304 338 514 102 254 228 716 297 1086 45 244 49 268 49
305 -1 38 -15 188 -19 195 -4 6 -18 169 -17 190 0 8 15 96 32 195 17 99 37
214 44 255 14 77 14 95 0 265 -11 148 -9 163 45 379 l50 200 -65 135 c-35 74
-66 153 -69 175 -2 23 -7 70 -10 106 -3 36 -8 85 -10 110 -2 25 -7 74 -10 110
-3 36 -7 75 -9 85 -2 11 -6 41 -10 66 -4 25 -8 57 -10 70 -3 13 -7 46 -11 74
-9 65 -57 158 -159 310 -69 102 -99 160 -171 332 -84 200 -92 214 -203 368
-94 129 -134 175 -207 236 -82 70 -190 137 -202 126 -2 -3 -10 -25 -18 -50
-13 -44 -13 -46 18 -89 17 -23 34 -45 38 -48 3 -3 39 -50 80 -105 130 -176
254 -401 394 -720 29 -66 66 -149 83 -185 112 -243 130 -295 161 -455 38 -194
38 -191 46 -290 4 -44 8 -93 10 -110 2 -16 6 -61 10 -100 3 -38 9 -97 14 -129
8 -62 7 -252 -2 -296 -6 -26 -14 -88 -22 -155 -3 -22 -7 -53 -10 -70 -2 -16
-7 -66 -10 -110 -3 -44 -7 -98 -10 -120 -25 -225 -25 -435 0 -750 19 -234 21
-207 -53 -500 -38 -148 -122 -439 -186 -645 -65 -206 -128 -409 -140 -450 -37
-119 -157 -373 -196 -417 -19 -21 -89 -99 -154 -173 -123 -139 -402 -420 -567
-572 -127 -115 -370 -267 -613 -380 l-188 -89 -222 5 c-121 3 -232 7 -246 10
-35 8 -171 35 -195 40 -11 2 -40 7 -65 12 -25 4 -47 8 -50 9 -47 11 -99 16
-305 31 -81 5 -117 16 -347 100 l-257 93 -173 130 c-249 186 -370 306 -517
516 -66 94 -163 238 -215 320 -52 83 -107 164 -122 180 -59 65 -240 260 -264
284 -19 21 -220 319 -253 377 -4 7 -39 124 -77 260 -70 246 -113 390 -130 429
-14 34 -102 309 -105 330 -2 11 -6 45 -10 75 -3 30 -8 69 -10 85 -33 231 -46
387 -50 608 -2 139 -7 299 -10 357 -14 243 -23 375 -30 410 -2 14 -7 50 -10
80 -3 30 -8 71 -10 90 -24 188 -38 307 -38 315 0 15 13 184 18 225 2 19 7 64
10 100 4 36 9 85 11 110 10 85 105 366 186 549 l82 183 185 186 c141 140 198
190 236 207 28 13 112 52 187 88 144 68 261 105 772 243 243 65 260 68 356 49
9 -2 41 -6 71 -10 30 -3 61 -8 69 -10 8 -2 38 -6 65 -10 28 -3 61 -7 75 -10
14 -3 41 -7 60 -10 33 -5 321 -94 438 -135 57 -20 474 -279 507 -315 11 -12
63 -68 115 -125 52 -56 108 -116 124 -134 61 -66 230 -301 266 -370 184 -351
198 -381 234 -516 20 -74 45 -166 56 -205 38 -139 51 -191 56 -225 3 -19 17
-84 31 -145 17 -78 22 -124 18 -160 -3 -27 -8 -66 -10 -85 -2 -19 -9 -73 -15
-120 -17 -135 -19 -151 -26 -225 -3 -38 -8 -77 -9 -86 -2 -8 -6 -55 -10 -105
-4 -49 -8 -93 -9 -99 -2 -11 -36 -67 -47 -75 -7 -7 -179 -255 -206 -300 l-21
-35 25 -60 c14 -33 29 -64 33 -69 6 -6 130 82 160 114 3 3 19 16 35 29 17 12
74 66 129 118 l99 96 14 81 c16 92 20 116 28 166 3 19 10 58 15 85 5 28 11 64
14 80 6 47 26 156 36 205 5 25 12 63 15 85 4 22 8 47 10 55 2 8 6 40 10 70 3
30 8 69 10 85 18 133 17 213 -5 310 -12 55 -24 112 -26 127 -5 26 -14 60 -74
258 -98 329 -103 341 -234 535 -68 99 -174 252 -237 340 -63 88 -137 193 -165
233 -44 66 -65 85 -217 193 -92 66 -211 159 -265 206 -113 100 -298 225 -362
246 -95 31 -313 98 -495 152 -170 51 -200 57 -288 58 -54 1 -100 1 -101 0z"/>
<path d="M4641 9872 c-80 -36 -87 -42 -193 -162 -61 -69 -123 -139 -137 -155
-15 -17 -82 -102 -150 -189 -67 -88 -156 -194 -198 -235 -60 -61 -85 -97 -129
-185 -39 -75 -92 -156 -173 -260 -65 -83 -169 -227 -231 -321 -108 -162 -115
-175 -158 -309 -24 -77 -82 -224 -128 -328 -87 -197 -83 -182 -129 -470 -8
-51 -17 -122 -20 -158 -11 -120 -15 -167 -19 -187 -3 -11 -7 -44 -10 -74 -6
-53 -13 -103 -22 -164 -2 -16 -11 -64 -19 -105 -8 -41 -16 -86 -19 -100 -12
-74 -43 -184 -95 -345 -48 -146 -60 -198 -66 -275 -3 -52 -8 -120 -10 -150
-23 -320 -23 -653 1 -900 2 -25 6 -146 9 -270 3 -124 7 -270 10 -325 l5 -100
108 -104 c59 -57 140 -136 179 -175 l73 -70 -24 74 c-13 41 -33 102 -44 135
-13 41 -22 104 -27 195 -4 74 -8 151 -10 170 -1 19 -6 89 -10 155 -4 66 -8
136 -10 155 -1 19 -6 80 -10 135 -4 55 -9 116 -11 135 -4 43 -4 184 0 225 2
17 7 68 11 115 3 47 8 101 10 120 2 19 7 71 10 115 3 44 8 91 10 105 3 23 12
94 19 150 10 83 19 148 22 165 2 11 6 43 9 70 3 28 13 77 21 110 9 33 17 67
19 75 2 8 12 51 23 95 18 69 28 150 37 295 4 59 17 243 20 285 2 22 20 114 40
205 36 161 63 233 130 340 42 68 64 127 111 290 38 136 62 196 134 340 48 96
122 252 165 345 67 148 104 217 125 235 5 4 129 160 167 210 61 80 151 181
292 328 19 20 57 72 85 116 113 183 286 469 286 475 0 3 8 16 18 29 15 19 17
33 11 75 -4 29 -8 60 -8 70 -1 22 -1 22 -100 -21z"/>
<path d="M8140 9659 c-19 -4 -51 -10 -70 -13 -19 -3 -46 -8 -60 -10 -14 -3
-94 -17 -178 -31 -122 -21 -197 -42 -380 -105 -125 -43 -256 -93 -292 -112
-36 -19 -119 -63 -185 -98 -106 -56 -167 -97 -240 -163 -11 -11 -45 -39 -76
-63 -32 -26 -62 -59 -71 -81 -107 -250 -167 -414 -173 -478 -4 -39 -9 -78 -10
-87 -19 -101 -23 -232 -12 -363 20 -225 37 -380 51 -480 3 -16 10 -68 16 -115
6 -47 13 -96 15 -110 2 -14 9 -61 15 -104 6 -49 23 -107 44 -155 70 -156 114
-325 141 -546 15 -120 76 -317 124 -403 21 -37 54 -96 73 -132 48 -89 98 -181
186 -340 90 -162 98 -175 147 -265 64 -117 206 -317 266 -375 76 -75 263 -254
330 -316 30 -28 106 -104 169 -169 109 -113 120 -122 255 -195 169 -92 251
-145 407 -262 64 -48 119 -88 122 -88 3 0 29 -11 58 -24 167 -75 183 -80 258
-82 197 -6 368 -6 400 -1 19 3 80 10 135 17 150 17 150 17 291 76 l131 55 85
127 c47 70 91 147 98 171 19 60 129 194 270 328 81 78 126 129 144 165 15 29
35 67 44 83 9 17 37 66 61 109 24 44 74 121 110 171 45 62 78 121 101 181 18
49 55 144 81 212 42 108 74 224 94 342 3 19 8 42 10 50 2 8 7 33 10 55 3 23 8
52 11 65 3 14 5 70 4 124 -1 82 -5 106 -21 133 -11 18 -22 33 -24 33 -1 0 -21
-25 -44 -55 -52 -68 -175 -381 -185 -470 -4 -33 -9 -73 -12 -90 -2 -16 -8 -57
-13 -90 -12 -85 -69 -292 -86 -313 -99 -120 -166 -207 -235 -307 -46 -66 -94
-133 -107 -150 -13 -16 -27 -35 -31 -40 -4 -6 -25 -35 -47 -65 -23 -30 -63
-93 -89 -140 -55 -96 -64 -111 -168 -270 l-75 -115 -149 -47 c-163 -52 -165
-52 -339 -68 -66 -6 -138 -13 -160 -15 -22 -2 -80 -7 -130 -10 -49 -4 -92 -9
-95 -10 -3 -2 -50 25 -105 61 -98 62 -118 73 -260 139 -97 45 -288 157 -424
248 -100 67 -124 88 -185 168 -63 82 -85 102 -199 178 l-127 86 -89 135 c-57
86 -124 172 -184 235 -91 95 -103 113 -256 385 -148 263 -260 484 -341 670
-18 41 -44 100 -57 130 -18 40 -39 135 -74 350 -27 162 -51 320 -53 350 -9
115 -18 216 -22 240 -3 14 -12 68 -20 120 -8 52 -34 167 -56 255 -40 157 -41
164 -42 340 l-1 180 58 140 c31 77 90 193 129 258 58 96 87 132 161 200 49 45
97 85 107 89 10 3 100 23 201 44 139 28 221 51 335 95 l152 58 173 7 c218 9
234 9 344 1 186 -14 230 -19 240 -26 6 -5 60 -34 120 -66 61 -32 121 -66 135
-76 14 -9 72 -47 130 -84 58 -37 141 -96 186 -131 l81 -63 36 -113 c32 -99 53
-139 157 -306 66 -106 135 -225 154 -265 61 -132 118 -252 132 -279 12 -22 43
-158 69 -298 3 -14 7 -36 10 -49 2 -13 -2 -56 -10 -95 -8 -39 -17 -86 -20
-103 -5 -29 -21 -70 -95 -238 -10 -22 -30 -74 -46 -116 l-28 -76 -60 -2 c-34
-1 -72 -3 -86 -4 -22 -2 -27 5 -49 68 -16 46 -46 99 -88 154 -63 84 -94 120
-251 296 -67 74 -95 116 -158 240 -65 128 -96 175 -213 320 -75 94 -139 172
-143 173 -5 2 -8 8 -8 14 0 14 -101 291 -111 303 -4 6 -32 23 -63 40 l-55 30
-39 -38 -39 -38 18 -97 c17 -90 27 -126 50 -177 4 -11 22 -55 39 -99 17 -43
87 -189 155 -325 114 -226 134 -258 242 -396 100 -129 142 -172 293 -303 170
-148 177 -156 235 -257 44 -77 67 -105 85 -110 64 -17 271 -57 274 -53 2 1 25
33 52 70 131 179 186 260 189 280 4 27 25 168 31 218 3 19 7 46 9 60 3 14 7
48 11 75 3 28 7 61 9 75 4 24 10 74 24 200 6 48 -2 83 -60 288 -58 202 -76
251 -137 370 -38 75 -99 202 -135 282 -36 80 -77 171 -91 202 -15 32 -47 82
-73 110 -192 220 -228 257 -363 379 -132 119 -136 122 -303 219 l-158 91 -197
45 c-108 25 -201 46 -207 48 -5 1 -26 -1 -45 -5z"/>
<path d="M7807 9098 c-49 -55 -61 -76 -86 -158 -69 -220 -82 -313 -88 -591
l-4 -256 67 -129 c37 -71 71 -134 75 -140 5 -5 29 -95 54 -200 43 -175 79
-295 95 -319 4 -5 10 -19 13 -30 3 -11 34 -104 70 -206 62 -180 67 -190 153
-310 48 -68 129 -178 179 -244 50 -66 100 -140 112 -165 12 -25 42 -88 67
-140 25 -52 62 -113 83 -136 21 -22 67 -74 103 -114 36 -40 74 -83 85 -95 28
-31 143 -96 315 -178 80 -38 200 -95 266 -127 l122 -58 117 34 116 34 87 88
c48 49 141 128 207 175 66 47 150 117 187 154 65 67 67 70 108 201 40 125 42
135 30 177 -7 25 -15 45 -18 45 -27 0 -81 -56 -133 -138 -70 -108 -173 -208
-275 -263 -88 -48 -106 -59 -184 -112 -39 -27 -112 -69 -162 -93 l-91 -45 -76
31 c-116 46 -212 116 -356 258 -71 71 -175 164 -229 206 -89 70 -106 89 -179
199 -93 142 -181 321 -243 497 -42 119 -44 129 -44 240 l0 115 -72 110 c-39
61 -84 142 -100 180 -68 164 -97 254 -103 320 -10 108 -21 147 -64 226 -37 70
-40 81 -47 189 -8 121 -8 129 2 445 7 220 2 203 77 256 18 13 23 27 24 63 1
25 -2 46 -5 47 -4 0 -15 2 -24 4 -9 2 -52 6 -96 10 l-79 7 -56 -64z"/>
<path d="M8339 8998 c-43 -41 -83 -92 -114 -146 l-48 -83 19 -35 c11 -20 24
-39 29 -44 10 -8 88 -18 175 -22 89 -3 305 -179 403 -327 46 -68 147 -239 147
-247 0 -2 33 -46 73 -98 39 -52 122 -172 183 -268 87 -135 118 -192 140 -259
l27 -86 54 12 c30 7 56 14 58 17 2 2 5 49 6 103 1 79 -3 113 -20 164 -11 35
-21 70 -21 77 0 7 -33 77 -73 156 -90 174 -105 201 -174 307 -30 46 -84 142
-120 212 l-65 129 -136 128 c-178 166 -239 227 -287 284 -33 39 -50 50 -95 62
-30 8 -64 18 -75 21 -15 4 -37 -11 -86 -57z"/>
<path d="M12289 8198 c-6 -85 2 -317 15 -423 3 -16 7 -61 11 -99 3 -38 17
-101 30 -140 12 -39 37 -118 55 -176 18 -58 42 -136 55 -175 21 -65 184 -504
204 -550 20 -45 31 -82 36 -120 3 -22 8 -65 12 -95 9 -66 9 -215 -1 -480 -4
-107 -9 -244 -11 -305 l-4 -110 25 30 c13 17 79 108 146 203 l121 174 -12 91
c-6 51 -13 103 -15 117 -6 33 -14 130 -21 265 -7 122 -7 125 -36 280 -18 96
-30 129 -94 255 -42 84 -75 164 -78 190 -4 25 -8 54 -11 65 -2 11 -7 40 -11
65 -6 39 -40 145 -66 205 -19 42 -63 165 -100 275 -21 63 -65 189 -99 279 -33
91 -60 166 -60 167 0 1 -12 5 -27 8 -16 4 -36 9 -45 12 -11 3 -18 0 -19 -8z"/>
<path d="M8602 7211 l-22 -39 25 -118 c33 -155 93 -297 167 -393 46 -59 80
-90 163 -146 140 -95 144 -99 189 -186 l38 -75 117 -56 c117 -56 122 -57 296
-74 l60 -6 35 78 c19 44 35 82 35 85 0 4 -11 20 -25 36 -14 15 -35 42 -48 60
-22 31 -27 33 -137 49 -16 2 -41 6 -55 9 -14 2 -43 7 -65 10 -34 5 -55 21
-150 114 -60 60 -137 133 -169 162 -33 30 -78 72 -101 94 -69 67 -198 234
-259 338 -32 53 -62 97 -65 97 -4 0 -17 -18 -29 -39z"/>
<path d="M2581 6947 c-77 -158 -236 -533 -311 -732 -63 -169 -143 -401 -140
-407 1 -2 -4 -16 -10 -33 -21 -55 -93 -290 -96 -315 -2 -14 -6 -70 -9 -125
-10 -150 -10 -154 -44 -244 l-32 -84 39 -46 c21 -25 56 -68 77 -94 l40 -48 6
48 c3 26 7 104 8 172 l2 125 49 101 c26 56 74 184 105 285 36 114 72 208 97
251 39 68 111 288 123 379 3 25 8 52 10 60 2 8 7 35 10 60 10 78 16 102 62
235 56 167 104 353 110 431 4 57 3 61 -21 72 -26 11 -26 10 -75 -91z"/>
<path d="M7027 6923 c-28 -4 -28 -5 -26 -71 3 -93 54 -225 125 -319 70 -93
126 -197 198 -363 66 -151 111 -239 200 -385 64 -106 207 -306 242 -340 11
-11 49 -53 84 -93 60 -70 65 -73 99 -68 20 3 37 5 39 6 2 0 0 30 -4 67 -10
105 -67 224 -156 330 -41 49 -88 108 -104 133 -49 73 -160 270 -225 402 -18
34 -67 160 -72 183 -2 6 -5 15 -9 20 -5 10 -25 75 -48 162 -8 32 -29 61 -89
120 -43 43 -106 111 -140 151 -34 39 -67 71 -74 71 -7 -1 -25 -4 -40 -6z"/>
<path d="M12251 6778 c-12 -63 -25 -151 -23 -158 0 -3 3 -34 7 -68 4 -35 9
-73 11 -85 19 -85 23 -558 9 -932 -10 -268 -11 -292 -24 -323 -6 -15 -26 -79
-45 -142 -19 -63 -52 -159 -74 -212 -21 -54 -38 -98 -36 -98 5 0 251 289 292
344 37 48 41 62 72 226 18 96 34 198 35 225 6 127 6 252 2 270 -3 11 -8 40
-12 65 -4 25 -9 54 -11 65 -10 56 -19 130 -29 260 -11 142 -14 193 -20 305 -3
63 -15 157 -27 208 -19 78 -25 92 -42 93 -12 0 -33 3 -48 5 -25 4 -27 1 -37
-48z"/>
<path d="M4890 5939 c-31 -13 -37 -22 -45 -78 -12 -83 -22 -152 -29 -191 -2
-8 18 -47 45 -86 l47 -71 1 -138 1 -138 45 -81 c24 -45 64 -138 89 -207 88
-250 198 -501 377 -864 141 -287 193 -383 233 -430 28 -33 53 -62 56 -65 3 -3
32 -36 65 -75 33 -38 62 -72 65 -75 7 -7 89 -121 190 -264 46 -66 102 -140
123 -165 109 -128 190 -231 281 -359 86 -118 93 -125 240 -234 97 -72 185
-127 246 -156 250 -117 325 -156 459 -236 79 -47 148 -86 154 -86 5 0 23 -6
40 -14 18 -7 52 -21 77 -31 25 -10 69 -29 98 -42 29 -13 55 -23 57 -23 3 0 53
-23 112 -51 192 -91 298 -137 362 -158 l62 -20 135 90 c75 50 134 92 132 94
-2 2 -71 25 -153 50 -430 133 -527 167 -690 246 -428 204 -520 259 -810 477
-106 79 -161 129 -225 204 -47 55 -92 107 -100 116 -8 10 -49 55 -90 102 -41
47 -77 87 -80 90 -3 3 -55 59 -116 125 -98 107 -233 275 -349 434 -35 49 -185
298 -185 308 0 5 -68 110 -83 128 -4 6 -51 71 -104 145 -88 125 -135 209 -185
335 -11 27 -31 74 -45 105 -53 116 -92 219 -122 317 -36 123 -38 127 -111 218
l-57 72 -18 119 c-10 65 -22 127 -27 136 -5 10 -38 59 -73 109 -36 50 -63 94
-61 98 2 3 7 57 11 119 7 121 6 121 -45 101z"/>
<path d="M3346 5865 l-59 -64 -3 -153 c-2 -84 -5 -166 -9 -183 -10 -52 -2
-738 9 -785 3 -14 8 -44 11 -67 3 -24 9 -73 14 -110 5 -38 13 -93 16 -123 4
-30 19 -122 35 -205 16 -82 31 -174 35 -204 4 -30 8 -61 10 -70 1 -9 6 -43 10
-76 4 -33 9 -69 11 -80 1 -11 6 -46 10 -79 5 -43 22 -86 67 -170 62 -116 113
-196 125 -196 4 0 25 -17 47 -38 22 -20 81 -71 130 -112 50 -41 92 -77 95 -80
3 -3 28 -24 55 -45 28 -22 55 -45 60 -51 6 -5 26 -22 45 -36 19 -14 44 -34 55
-45 11 -10 37 -32 59 -48 l39 -29 -58 108 c-31 60 -96 172 -143 250 -95 156
-132 229 -285 556 -9 19 -39 130 -67 245 -29 116 -71 276 -95 357 -33 109 -46
172 -50 240 -3 51 -8 118 -10 148 -3 30 -7 84 -10 120 -3 36 -7 76 -10 90 -2
13 -7 42 -10 65 -3 22 -10 66 -16 97 -15 89 -19 161 -24 468 -4 275 -9 355
-23 364 -4 2 -34 -24 -66 -59z"/>
<path d="M1712 5512 c-7 -5 -15 -41 -18 -88 -3 -43 -8 -82 -11 -86 -4 -7 83
-128 92 -128 8 0 -4 230 -14 268 -12 41 -24 50 -49 34z"/>
<path d="M2382 5138 c-6 -29 -14 -71 -18 -93 -4 -22 -8 -47 -10 -55 -22 -119
-28 -169 -39 -325 l-6 -90 85 -87 c46 -49 86 -88 88 -88 12 0 -2 627 -17 705
-2 11 -4 27 -4 36 -1 9 -13 22 -28 30 -16 7 -31 15 -35 17 -3 2 -11 -21 -16
-50z"/>
</g>
</svg>
